<svg width="315" height="88" viewBox="0 0 315 88" fill="none" xmlns="http://www.w3.org/2000/svg">
<path d="M138.11 26.3637C136.419 26.3637 134.779 26.1367 133.191 25.6827C131.622 25.2081 130.36 24.5994 129.402 23.8566L131.083 20.0805C131.999 20.7614 133.089 21.3082 134.352 21.7209C135.615 22.1336 136.877 22.34 138.14 22.34C139.546 22.34 140.584 22.1336 141.257 21.7209C141.929 21.2876 142.265 20.7201 142.265 20.0186C142.265 19.5027 142.061 19.0797 141.654 18.7495C141.267 18.3988 140.758 18.1202 140.126 17.9138C139.515 17.7075 138.68 17.4805 137.621 17.2329C135.991 16.8409 134.657 16.4488 133.619 16.0567C132.58 15.6647 131.684 15.0353 130.93 14.1687C130.197 13.302 129.83 12.1465 129.83 10.7021C129.83 9.44337 130.166 8.30848 130.838 7.29738C131.51 6.26566 132.519 5.45059 133.863 4.85219C135.228 4.25379 136.888 3.95459 138.843 3.95459C140.208 3.95459 141.542 4.11967 142.845 4.44982C144.149 4.77997 145.289 5.25457 146.267 5.8736L144.739 9.68067C142.764 8.54577 140.788 7.97832 138.812 7.97832C137.427 7.97832 136.399 8.2053 135.727 8.65926C135.075 9.11322 134.749 9.71162 134.749 10.4545C134.749 11.1973 135.126 11.7544 135.879 12.1259C136.653 12.4766 137.825 12.8274 139.393 13.1782C141.022 13.5703 142.356 13.9623 143.395 14.3544C144.434 14.7464 145.32 15.3655 146.053 16.2115C146.807 17.0575 147.184 18.2027 147.184 19.6471C147.184 20.8852 146.837 22.0201 146.145 23.0518C145.473 24.0629 144.454 24.8677 143.09 25.4661C141.725 26.0645 140.065 26.3637 138.11 26.3637Z" fill="black"/>
<path d="M166.789 9.3402V25.9923H162.267V24.0113C161.636 24.7336 160.882 25.2907 160.006 25.6827C159.13 26.0542 158.183 26.2399 157.165 26.2399C155.006 26.2399 153.295 25.6105 152.032 24.3518C150.769 23.0931 150.138 21.2257 150.138 18.7495V9.3402H154.904V18.0377C154.904 20.7201 156.014 22.0614 158.234 22.0614C159.375 22.0614 160.291 21.69 160.984 20.9471C161.676 20.1836 162.023 19.0591 162.023 17.5734V9.3402H166.789Z" fill="black"/>
<path d="M181.806 25.1875C181.337 25.5383 180.757 25.8066 180.064 25.9923C179.392 26.1573 178.679 26.2399 177.926 26.2399C175.97 26.2399 174.453 25.7343 173.373 24.7232C172.314 23.7121 171.785 22.2265 171.785 20.2662V13.4258H169.249V9.71162H171.785V5.65694H176.551V9.71162H180.645V13.4258H176.551V20.2043C176.551 20.9058 176.724 21.4527 177.07 21.8447C177.437 22.2161 177.946 22.4019 178.598 22.4019C179.351 22.4019 179.993 22.1955 180.523 21.7828L181.806 25.1875Z" fill="black"/>
<path d="M194.725 25.1875C194.256 25.5383 193.676 25.8066 192.983 25.9923C192.311 26.1573 191.598 26.2399 190.845 26.2399C188.889 26.2399 187.372 25.7343 186.292 24.7232C185.233 23.7121 184.704 22.2265 184.704 20.2662V13.4258H182.168V9.71162H184.704V5.65694H189.47V9.71162H193.564V13.4258H189.47V20.2043C189.47 20.9058 189.643 21.4527 189.989 21.8447C190.356 22.2161 190.865 22.4019 191.517 22.4019C192.27 22.4019 192.912 22.1955 193.441 21.7828L194.725 25.1875Z" fill="black"/>
<path d="M204.714 26.2399C202.983 26.2399 201.425 25.8788 200.04 25.1566C198.675 24.4137 197.606 23.3923 196.832 22.0923C196.058 20.7924 195.671 19.317 195.671 17.6662C195.671 16.0155 196.058 14.5401 196.832 13.2401C197.606 11.9402 198.675 10.9291 200.04 10.2068C201.425 9.46401 202.983 9.09259 204.714 9.09259C206.446 9.09259 207.993 9.46401 209.358 10.2068C210.723 10.9291 211.792 11.9402 212.566 13.2401C213.34 14.5401 213.727 16.0155 213.727 17.6662C213.727 19.317 213.34 20.7924 212.566 22.0923C211.792 23.3923 210.723 24.4137 209.358 25.1566C207.993 25.8788 206.446 26.2399 204.714 26.2399ZM204.714 22.278C205.936 22.278 206.934 21.8654 207.708 21.04C208.503 20.194 208.9 19.0694 208.9 17.6662C208.9 16.2631 208.503 15.1488 207.708 14.3234C206.934 13.4774 205.936 13.0544 204.714 13.0544C203.492 13.0544 202.484 13.4774 201.69 14.3234C200.895 15.1488 200.498 16.2631 200.498 17.6662C200.498 19.0694 200.895 20.194 201.69 21.04C202.484 21.8654 203.492 22.278 204.714 22.278Z" fill="black"/>
<path d="M226.903 9.09259C228.94 9.09259 230.58 9.71162 231.822 10.9497C233.085 12.1878 233.716 14.0242 233.716 16.4591V25.9923H228.95V17.202C228.95 15.8813 228.665 14.9012 228.095 14.2615C227.525 13.6012 226.7 13.2711 225.62 13.2711C224.418 13.2711 223.461 13.6528 222.748 14.4163C222.035 15.1591 221.679 16.2734 221.679 17.7591V25.9923H216.913V9.3402H221.465V11.2902C222.096 10.5886 222.881 10.0521 223.818 9.68067C224.755 9.28861 225.783 9.09259 226.903 9.09259Z" fill="black"/>
<path d="M129.402 35.5511H134.295V56.4431H129.402V35.5511Z" fill="black"/>
<path d="M148.856 40.1473C150.87 40.1473 152.49 40.7443 153.719 41.9381C154.967 43.1319 155.591 44.9027 155.591 47.2506V56.4431H150.88V47.9669C150.88 46.6935 150.598 45.7484 150.034 45.1316C149.47 44.4949 148.655 44.1765 147.588 44.1765C146.4 44.1765 145.453 44.5446 144.749 45.2808C144.044 45.9971 143.692 47.0715 143.692 48.5041V56.4431H138.98V40.3861H143.48V42.2664C144.104 41.5899 144.88 41.0726 145.806 40.7144C146.732 40.3364 147.749 40.1473 148.856 40.1473Z" fill="black"/>
<path d="M165.027 40.7443H169.194V44.3257H165.147V56.4431H160.436V44.3257H157.929V40.7443H160.436V40.028C160.436 38.1974 160.979 36.7449 162.067 35.6705C163.174 34.5961 164.724 34.0588 166.718 34.0588C167.423 34.0588 168.087 34.1384 168.711 34.2976C169.355 34.4369 169.889 34.6458 170.312 34.9244L169.074 38.2969C168.53 37.9189 167.896 37.7299 167.171 37.7299C165.741 37.7299 165.027 38.5058 165.027 40.0578V40.7443Z" fill="black"/>
<path d="M179.067 56.6818C177.355 56.6818 175.815 56.3336 174.446 55.6372C173.097 54.9209 172.04 53.936 171.275 52.6825C170.51 51.429 170.127 50.0063 170.127 48.4146C170.127 46.8228 170.51 45.4002 171.275 44.1467C172.04 42.8931 173.097 41.9182 174.446 41.2218C175.815 40.5055 177.355 40.1473 179.067 40.1473C180.778 40.1473 182.309 40.5055 183.658 41.2218C185.007 41.9182 186.064 42.8931 186.829 44.1467C187.594 45.4002 187.976 46.8228 187.976 48.4146C187.976 50.0063 187.594 51.429 186.829 52.6825C186.064 53.936 185.007 54.9209 183.658 55.6372C182.309 56.3336 180.778 56.6818 179.067 56.6818ZM179.067 52.8616C180.275 52.8616 181.262 52.4636 182.027 51.6678C182.812 50.852 183.205 49.7676 183.205 48.4146C183.205 47.0616 182.812 45.9871 182.027 45.1913C181.262 44.3755 180.275 43.9676 179.067 43.9676C177.859 43.9676 176.862 44.3755 176.077 45.1913C175.292 45.9871 174.899 47.0616 174.899 48.4146C174.899 49.7676 175.292 50.852 176.077 51.6678C176.862 52.4636 177.859 52.8616 179.067 52.8616Z" fill="black"/>
<path d="M195.626 42.5051C196.19 41.7292 196.945 41.1422 197.891 40.7443C198.857 40.3463 199.965 40.1473 201.213 40.1473V44.4451C200.69 44.4053 200.337 44.3854 200.156 44.3854C198.807 44.3854 197.75 44.7635 196.985 45.5196C196.22 46.2557 195.837 47.37 195.837 48.8623V56.4431H191.126V40.3861H195.626V42.5051Z" fill="black"/>
<path d="M224.824 40.1473C226.857 40.1473 228.468 40.7443 229.656 41.9381C230.864 43.112 231.468 44.8828 231.468 47.2506V56.4431H226.757V47.9669C226.757 46.6935 226.485 45.7484 225.941 45.1316C225.418 44.4949 224.663 44.1765 223.676 44.1765C222.569 44.1765 221.693 44.5346 221.049 45.2509C220.404 45.9473 220.082 46.9919 220.082 48.3847V56.4431H215.371V47.9669C215.371 45.44 214.344 44.1765 212.29 44.1765C211.203 44.1765 210.337 44.5346 209.693 45.2509C209.048 45.9473 208.726 46.9919 208.726 48.3847V56.4431H204.015V40.3861H208.515V42.2365C209.119 41.56 209.854 41.0427 210.72 40.6846C211.605 40.3264 212.572 40.1473 213.619 40.1473C214.767 40.1473 215.804 40.3762 216.73 40.8338C217.656 41.2715 218.401 41.9182 218.965 42.7738C219.629 41.9381 220.465 41.2914 221.471 40.8338C222.498 40.3762 223.616 40.1473 224.824 40.1473Z" fill="black"/>
<path d="M242.245 40.1473C244.762 40.1473 246.695 40.7443 248.044 41.9381C249.393 43.112 250.068 44.8928 250.068 47.2804V56.4431H245.658V54.4434C244.772 55.9357 243.121 56.6818 240.705 56.6818C239.457 56.6818 238.369 56.4729 237.443 56.0551C236.537 55.6372 235.842 55.0602 235.359 54.324C234.876 53.5878 234.634 52.7521 234.634 51.817C234.634 50.3247 235.198 49.1508 236.326 48.2952C237.473 47.4396 239.235 47.0118 241.611 47.0118H245.356C245.356 45.9971 245.044 45.2211 244.42 44.6839C243.796 44.1268 242.859 43.8482 241.611 43.8482C240.745 43.8482 239.889 43.9875 239.044 44.266C238.218 44.5247 237.514 44.8828 236.93 45.3405L235.238 42.0873C236.124 41.4705 237.181 40.993 238.41 40.6547C239.658 40.3165 240.936 40.1473 242.245 40.1473ZM241.883 53.548C242.688 53.548 243.403 53.369 244.027 53.0108C244.651 52.6328 245.094 52.0856 245.356 51.3693V49.7278H242.124C240.191 49.7278 239.225 50.3545 239.225 51.6081C239.225 52.205 239.457 52.6825 239.92 53.0406C240.403 53.3789 241.057 53.548 241.883 53.548Z" fill="black"/>
<path d="M264.812 55.6671C264.349 56.0053 263.775 56.264 263.09 56.4431C262.426 56.6022 261.721 56.6818 260.976 56.6818C259.043 56.6818 257.543 56.1943 256.476 55.2194C255.429 54.2444 254.905 52.8118 254.905 50.9216V44.3257H252.399V40.7443H254.905V36.8345H259.617V40.7443H263.664V44.3257H259.617V50.8619C259.617 51.5384 259.788 52.0657 260.13 52.4437C260.493 52.8019 260.996 52.981 261.641 52.981C262.386 52.981 263.02 52.782 263.543 52.384L264.812 55.6671Z" fill="black"/>
<path d="M267.457 40.3861H272.168V56.4431H267.457V40.3861Z" fill="black"/>
<path d="M284.272 56.6818C282.561 56.6818 281.021 56.3336 279.652 55.6372C278.302 54.9209 277.245 53.936 276.48 52.6825C275.715 51.429 275.333 50.0063 275.333 48.4146C275.333 46.8228 275.715 45.4002 276.48 44.1467C277.245 42.8931 278.302 41.9182 279.652 41.2218C281.021 40.5055 282.561 40.1473 284.272 40.1473C285.984 40.1473 287.514 40.5055 288.863 41.2218C290.212 41.9182 291.269 42.8931 292.034 44.1467C292.799 45.4002 293.182 46.8228 293.182 48.4146C293.182 50.0063 292.799 51.429 292.034 52.6825C291.269 53.936 290.212 54.9209 288.863 55.6372C287.514 56.3336 285.984 56.6818 284.272 56.6818ZM284.272 52.8616C285.48 52.8616 286.467 52.4636 287.232 51.6678C288.017 50.852 288.41 49.7676 288.41 48.4146C288.41 47.0616 288.017 45.9871 287.232 45.1913C286.467 44.3755 285.48 43.9676 284.272 43.9676C283.064 43.9676 282.068 44.3755 281.282 45.1913C280.497 45.9871 280.105 47.0616 280.105 48.4146C280.105 49.7676 280.497 50.852 281.282 51.6678C282.068 52.4636 283.064 52.8616 284.272 52.8616Z" fill="black"/>
<path d="M306.207 40.1473C308.221 40.1473 309.842 40.7443 311.07 41.9381C312.318 43.1319 312.942 44.9027 312.942 47.2506V56.4431H308.231V47.9669C308.231 46.6935 307.949 45.7484 307.385 45.1316C306.821 44.4949 306.006 44.1765 304.939 44.1765C303.751 44.1765 302.805 44.5446 302.1 45.2808C301.395 45.9971 301.043 47.0715 301.043 48.5041V56.4431H296.331V40.3861H300.831V42.2664C301.456 41.5899 302.231 41.0726 303.157 40.7144C304.083 40.3364 305.1 40.1473 306.207 40.1473Z" fill="black"/>
<path d="M267.698 37.4016C268.242 37.899 268.947 38.1477 269.812 38.1477C270.678 38.1477 271.383 37.899 271.927 37.4016C272.47 36.8843 272.742 36.2376 272.742 35.4616C272.742 34.7453 272.47 34.1484 271.927 33.6709C271.383 33.1934 270.678 32.9546 269.812 32.9546C268.947 32.9546 268.242 33.2033 267.698 33.7007C267.155 34.1982 266.883 34.815 266.883 35.5512C266.883 36.2874 267.155 36.9042 267.698 37.4016Z" fill="#58C5AF"/>
<path d="M148.658 65.8457V86.7609H143.799V78.1857H134.261V86.7609H129.402V65.8457H134.261V74.0923H143.799V65.8457H148.658Z" fill="black"/>
<path d="M169.552 70.6861V86.7609H165.113V84.8486C164.493 85.5458 163.753 86.0836 162.893 86.4621C162.034 86.8206 161.104 86.9999 160.104 86.9999C157.984 86.9999 156.305 86.3924 155.065 85.1773C153.825 83.9622 153.206 82.1595 153.206 79.7692V70.6861H157.884V79.082C157.884 81.6715 158.974 82.9663 161.154 82.9663C162.273 82.9663 163.173 82.6077 163.853 81.8906C164.533 81.1536 164.873 80.068 164.873 78.6339V70.6861H169.552Z" fill="black"/>
<path d="M183.424 70.4471C184.924 70.4471 186.284 70.7956 187.504 71.4928C188.743 72.1701 189.713 73.1362 190.413 74.3911C191.113 75.6261 191.463 77.0702 191.463 78.7235C191.463 80.3768 191.113 81.8309 190.413 83.0858C189.713 84.3208 188.743 85.2869 187.504 85.984C186.284 86.6613 184.924 86.9999 183.424 86.9999C181.205 86.9999 179.515 86.3027 178.356 84.9084V86.7609H173.887V64.5908H178.566V72.3892C179.745 71.0944 181.365 70.4471 183.424 70.4471ZM182.615 83.1754C183.814 83.1754 184.794 82.777 185.554 81.9803C186.334 81.1636 186.724 80.078 186.724 78.7235C186.724 77.369 186.334 76.2933 185.554 75.4966C184.794 74.6799 183.814 74.2715 182.615 74.2715C181.415 74.2715 180.425 74.6799 179.645 75.4966C178.885 76.2933 178.506 77.369 178.506 78.7235C178.506 80.078 178.885 81.1636 179.645 81.9803C180.425 82.777 181.415 83.1754 182.615 83.1754Z" fill="black"/>
<path d="M97.7587 76.6141C97.6168 78.1894 97.7851 82.0507 97.7154 83.6356C97.6865 84.3008 97.571 85.6191 98.3119 85.8208C98.8867 85.9769 99.1032 85.2277 99.209 84.6778C99.5073 83.1289 100.27 76.2732 100.366 74.6739C100.383 74.3737 97.7876 76.3068 97.7587 76.6141Z" fill="#D95F5F"/>
<path d="M99.8861 84.9973C99.7786 84.9521 99.6862 84.8773 99.6197 84.7817C99.5533 84.686 99.5155 84.5733 99.5109 84.457C99.4964 84.3609 99.5469 83.9911 99.482 83.9311C99.417 83.871 99.4484 83.8878 99.3233 83.8662C98.8976 83.7942 98.1759 83.751 97.9041 83.7366C97.7839 83.7366 97.7598 83.7366 97.7166 83.9767C97.7166 83.9911 97.6203 84.858 97.5915 85.3166C97.5578 85.8593 97.6228 86.0178 98.0966 86.1499C99.2415 86.4741 100.598 86.7286 101.786 86.9855C101.813 86.9907 101.841 86.9905 101.867 86.985C101.894 86.9794 101.919 86.9686 101.941 86.9532C101.964 86.9378 101.983 86.918 101.998 86.8951C102.012 86.8722 102.022 86.8466 102.027 86.8198C102.236 86.0682 102.181 86.1139 101.57 85.8185C101.211 85.66 100.184 85.1341 99.8861 84.9973Z" fill="#1C1C1C"/>
<path d="M86.4591 74.9957C85.6029 76.326 83.9697 79.8295 83.1735 81.2055C82.8392 81.7818 82.1297 82.8864 82.6925 83.4171C83.1303 83.8205 83.669 83.2562 84.0154 82.8168C84.9991 81.5801 88.8452 75.8529 89.6678 74.4746C89.8217 74.2176 86.6251 74.7363 86.4591 74.9957Z" fill="#D95F5F"/>
<path d="M84.4711 83.4123C84.3965 83.3226 84.3489 83.2135 84.334 83.0979C84.3191 82.9822 84.3375 82.8647 84.3869 82.7591C84.4182 82.6678 84.6275 82.3629 84.6034 82.2788C84.5793 82.1948 84.6034 82.2236 84.4928 82.1468C84.1512 81.885 83.5307 81.5152 83.2901 81.3783C83.1867 81.3159 83.1579 81.3183 83.0087 81.5128C83.0087 81.5272 82.5277 82.25 82.2871 82.6462C82.0057 83.1121 81.9912 83.2802 82.3496 83.6068C83.2155 84.4208 84.3027 85.2733 85.236 86.0489C85.2791 86.0789 85.3322 86.0912 85.3842 86.0831C85.4361 86.0751 85.483 86.0473 85.515 86.0057C86.049 85.4366 85.9768 85.451 85.5727 84.9059C85.3394 84.6105 84.6731 83.6716 84.4711 83.4123Z" fill="#1C1C1C"/>
<path d="M84.3204 77.6035C85.6567 74.1108 86.3761 70.4132 86.4467 66.6751C86.5092 63.7935 86.603 55.0046 87.5387 52.2671C87.962 51.0304 88.6042 54.217 89.9439 53.8136C90.9445 53.5134 92.1929 54.1089 93.3113 54.8509C94.7545 54.4355 96.7316 54.8077 97.9077 54.9878C98.2132 54.7477 98.6847 54.8005 98.7665 55.3168C100.087 63.6134 103.065 71.7467 101.237 80.2474C101.212 80.378 101.143 80.4965 101.042 80.5836C100.941 80.6707 100.814 80.7214 100.681 80.7276C99.5482 80.5739 98.4322 80.3842 97.3137 80.1465C97.1872 80.0996 97.0784 80.0145 97.0025 79.9031C96.9266 79.7916 96.8874 79.6593 96.8903 79.5246C96.6677 75.8009 95.7976 72.1444 94.3191 68.7186C94.0665 68.1327 93.8093 67.5636 93.5591 66.9944C92.4022 71.8499 90.9398 76.5469 87.9067 80.4875C87.828 80.5888 87.7153 80.6584 87.5895 80.6835C87.4636 80.7086 87.3328 80.6876 87.2211 80.6244C86.2735 79.904 85.3595 79.1668 84.4575 78.3815C84.3612 78.2793 84.297 78.1512 84.2726 78.013C84.2483 77.8747 84.2649 77.7324 84.3204 77.6035Z" fill="#58C5AF"/>
<path d="M93.8598 35.7412C93.8453 35.6428 93.8332 35.5467 93.814 35.4507C93.8056 35.4018 93.7791 35.358 93.7395 35.3282C93.7353 35.287 93.7204 35.2476 93.6964 35.2138C93.6724 35.18 93.6402 35.153 93.6027 35.1354C93.5652 35.1177 93.5237 35.1101 93.4823 35.1131C93.4409 35.1162 93.4011 35.1299 93.3666 35.1529C93.381 34.968 93.3883 34.7831 93.4051 34.5982C93.4024 34.5384 93.3786 34.4815 93.3381 34.4375C93.2975 34.3935 93.2428 34.3651 93.1834 34.3574C93.124 34.3496 93.0637 34.363 93.0132 34.3952C92.9627 34.4274 92.9252 34.4763 92.9072 34.5333C92.9072 34.555 92.9072 34.5766 92.9072 34.5982C92.9072 34.5982 92.9072 34.6174 92.9072 34.627C92.8779 34.5905 92.8394 34.5625 92.7955 34.5461C92.7516 34.5297 92.7041 34.5255 92.658 34.5339C92.6119 34.5423 92.5689 34.5629 92.5336 34.5937C92.4983 34.6244 92.472 34.6642 92.4575 34.7086C92.4575 34.6678 92.4575 34.627 92.4575 34.5862C92.4513 34.5232 92.4219 34.4648 92.375 34.4224C92.3281 34.3799 92.267 34.3563 92.2037 34.3563C92.1403 34.3563 92.0792 34.3799 92.0323 34.4224C91.9854 34.4648 91.956 34.5232 91.9499 34.5862V34.6318C91.8843 34.6327 91.8213 34.6576 91.7729 34.7019C91.7245 34.7462 91.6942 34.8067 91.6877 34.8719C91.6877 34.9416 91.6877 35.0112 91.6733 35.0809C91.6142 35.0823 91.5578 35.1053 91.5146 35.1457C91.477 35.1159 91.4318 35.0969 91.3842 35.0908C91.3365 35.0846 91.2881 35.0915 91.244 35.1108C91.2 35.13 91.1621 35.1609 91.1343 35.2C91.1066 35.2392 91.09 35.2852 91.0864 35.333C91.0335 36.3319 90.9814 37.3317 90.9301 38.3322C90.9061 38.8125 90.6656 39.653 90.9085 40.09C90.9682 40.165 91.0434 40.2262 91.1288 40.2697C91.2143 40.3132 91.308 40.3379 91.4039 40.3421C91.4039 40.4286 91.4039 40.515 91.4039 40.5991C91.4039 40.666 91.4305 40.7301 91.4779 40.7774C91.5252 40.8247 91.5895 40.8512 91.6565 40.8512C91.7235 40.8512 91.7877 40.8247 91.835 40.7774C91.8824 40.7301 91.909 40.666 91.909 40.5991V40.4574H91.9235C91.9235 40.6039 91.9235 40.7528 91.9235 40.8993C91.9212 40.9415 91.9302 40.9836 91.9495 41.0213C91.9688 41.059 91.9979 41.0909 92.0335 41.1138C92.0692 41.1368 92.1102 41.1499 92.1526 41.1518C92.1949 41.1538 92.237 41.1445 92.2746 41.125C92.3134 41.1791 92.3717 41.216 92.4372 41.2281C92.5026 41.2402 92.5702 41.2265 92.6258 41.1898C92.6492 41.2221 92.68 41.2483 92.7155 41.2664C92.751 41.2845 92.7904 41.2939 92.8302 41.2939C92.8701 41.2939 92.9095 41.2845 92.945 41.2664C92.9805 41.2483 93.0113 41.2221 93.0347 41.1898C93.0595 41.2388 93.0994 41.2785 93.1485 41.303C93.1977 41.3275 93.2535 41.3355 93.3075 41.3257C93.3616 41.316 93.4111 41.2891 93.4486 41.2491C93.4861 41.209 93.5097 41.1579 93.5158 41.1034C93.5158 41.0529 93.5158 41.0025 93.5158 40.9521C93.5636 40.9757 93.6176 40.9838 93.6702 40.9752C93.7229 40.9666 93.7714 40.9417 93.8091 40.9041L94.1483 40.9785C94.2926 41.0121 94.485 40.9041 94.4658 40.7384C94.2871 39.086 94.2501 37.4215 94.3551 35.7628C94.3792 35.4506 93.9079 35.4459 93.8598 35.7412Z" fill="#D95F5F"/>
<path d="M78.0409 44.5686C78.1942 44.7055 78.3699 44.8152 78.5604 44.8928C78.837 45.0392 79.0174 45.0705 79.2291 45.373C79.3421 45.5291 79.4239 45.7164 79.5273 45.8797C80.1262 46.8282 80.7083 47.8608 81.8941 47.1476C81.9296 47.1256 81.9597 47.0959 81.9823 47.0608C82.0049 47.0257 82.0194 46.986 82.0247 46.9446C82.03 46.9032 82.026 46.8612 82.013 46.8215C82 46.7819 81.9782 46.7456 81.9494 46.7154C81.9944 46.6819 82.0242 46.632 82.0323 46.5766C82.0404 46.5212 82.0261 46.4649 81.9927 46.42C81.7786 46.0862 81.5646 45.7476 81.3217 45.4306C81.1451 45.2203 80.9843 44.9971 80.8406 44.7631C80.629 44.3789 80.6602 44.0739 80.6001 43.6561C80.5898 43.4385 80.5362 43.2252 80.4425 43.0285C80.3488 42.8318 80.2167 42.6558 80.0541 42.5106C79.7174 42.2249 79.181 42.0184 78.7697 42.2465C78.3453 42.5343 78.0083 42.9331 77.7955 43.3991C77.7213 43.5972 77.7049 43.8123 77.7484 44.0194C77.7918 44.2264 77.8932 44.4169 78.0409 44.5686Z" fill="#D95F5F"/>
<path d="M104.097 62.66C103.995 62.4829 103.862 62.3252 103.705 62.1941C103.488 61.966 103.327 61.8819 103.224 61.5313C103.168 61.3488 103.147 61.1471 103.101 60.9598C102.827 59.8696 102.596 58.7074 101.247 59.0172C101.206 59.027 101.168 59.0458 101.136 59.0722C101.103 59.0985 101.077 59.1318 101.059 59.1695C101.041 59.2072 101.032 59.2485 101.032 59.2902C101.032 59.332 101.041 59.3733 101.059 59.411C101.006 59.429 100.963 59.4672 100.938 59.5171C100.913 59.567 100.909 59.6247 100.927 59.6775C101.025 60.0617 101.124 60.4483 101.254 60.8254C101.358 61.0805 101.443 61.343 101.509 61.6106C101.588 62.0428 101.463 62.331 101.379 62.7344C101.321 62.9447 101.305 63.1645 101.333 63.3809C101.361 63.5973 101.431 63.806 101.54 63.9951C101.781 64.3697 102.216 64.7323 102.678 64.6459C103.171 64.5019 103.616 64.2273 103.965 63.851C104.098 63.6854 104.181 63.4855 104.204 63.2747C104.227 63.0638 104.19 62.8506 104.097 62.66Z" fill="#D95F5F"/>
<path d="M92.1006 28.8711C92.3126 28.7594 92.5359 28.6708 92.7669 28.6069C92.8611 28.7671 92.9741 28.9154 93.1036 29.0488C93.5311 29.4639 94.102 29.6994 94.6984 29.7067H95.1217C95.3162 29.7049 95.5097 29.6767 95.6966 29.6227C96.2175 30.2697 96.5504 31.0473 96.6587 31.8703C96.6875 32.0889 96.7164 32.6652 96.7356 32.8957C96.9761 33.5056 97.2167 33.789 97.3851 34.4206C97.5053 34.9008 97.0363 35.0065 96.6635 35.1145C96.5841 35.6332 96.6081 36.3896 96.4037 36.8435C95.9683 37.804 95.1097 37.828 93.9215 37.8833C91.2997 38.0057 90.1837 36.5986 89.8493 34.6463C89.1518 32.5427 89.8469 30.0693 92.1006 28.8711Z" fill="#D95F5F"/>
<path d="M79.1746 47.2123C80.3892 50.0267 82.8234 52.2551 85.9767 51.8733C86.0272 53.8232 85.9526 55.7803 86.2172 57.7133C86.3279 58.5034 86.3134 58.5754 87.0398 58.8179C87.6387 59.0172 88.305 59.022 88.9064 59.0941C91.5353 59.4159 94.1811 59.231 96.8149 59.0941C97.8148 59.0193 98.8092 58.8837 99.7926 58.6883C99.9417 59.231 100.1 59.7737 100.274 60.3139C100.299 60.3948 100.354 60.4631 100.427 60.505C100.501 60.5469 100.588 60.5593 100.67 60.5397C101.503 60.3884 102.797 60.4941 103.225 59.704C103.465 59.2502 103.083 58.8636 103.239 58.3665C103.384 57.9174 103.915 57.2355 103.884 56.748C103.72 54.2578 102.458 51.7724 101.33 49.4816C100.228 46.6696 98.9075 43.3582 96.6874 41.149C96.3988 40.1236 95.86 38.7476 94.8858 38.5075C94.1426 38.325 93.154 38.6684 92.3555 39.1319L92.1799 39.1127C91.7205 38.6804 91.237 38.2722 90.7367 37.876C90.2942 37.5254 89.8251 37.0547 89.2286 37.0187C88.0933 36.9491 87.1265 38.3058 86.5516 39.1078C85.9382 39.9651 85.1782 41.149 86.1956 42.0038C86.4591 42.2085 86.7486 42.3773 87.0567 42.5057C86.8739 42.8723 86.6951 43.2413 86.5203 43.6127C86.2304 44.292 85.887 44.9472 85.4932 45.5722C85.0002 46.4823 84.1559 46.8161 82.9677 46.5808C82.4892 46.2005 82.0897 45.7307 81.7915 45.1976C81.7484 45.1242 81.6778 45.0708 81.5953 45.0492C81.5128 45.0276 81.4251 45.0395 81.3514 45.0823C80.6042 45.6203 79.8887 46.2008 79.2083 46.8209C79.1623 46.8744 79.1342 46.9409 79.1282 47.0112C79.1221 47.0814 79.1384 47.1518 79.1746 47.2123Z" fill="#F9B34A"/>
<path d="M87.6652 33.7673C88.0856 34.1692 88.4511 34.6245 88.7524 35.1217C89.284 35.9958 89.6977 36.4424 90.7103 36.7642C90.7527 36.8105 90.8066 36.8449 90.8665 36.8639C90.9265 36.8828 90.9904 36.8857 91.0518 36.8722C91.504 36.7666 91.8913 36.2863 92.0885 35.8805C92.5696 34.8647 92.0236 34.3148 92.8606 33.3015C93.142 32.9581 93.308 32.9677 93.3729 32.4682C93.4619 31.803 93.0049 31.5797 93.854 30.929C94.3711 30.5327 95.1769 30.5183 95.7782 30.5327C95.8246 30.5345 95.8709 30.5249 95.9128 30.5048C95.9547 30.4847 95.991 30.4547 96.0187 30.4175C96.5431 30.355 96.9255 29.9756 96.7403 29.3657C96.6272 28.9983 96.4036 28.8854 96.1029 28.6861C95.5928 28.3197 95.062 27.9829 94.5131 27.6776C94.0624 27.4658 93.5512 27.4199 93.0699 27.5479C92.3772 27.7184 92.1078 28.0282 91.3862 28.0137C90.3592 27.9921 89.6448 28.2083 89.2022 29.1496C88.9136 29.7667 89.2022 29.4786 88.6057 29.8964C88.22 30.1493 87.8766 30.4613 87.5882 30.8209C86.9316 31.743 86.833 32.9173 87.6652 33.7673Z" fill="#1C1C1C"/>
<path d="M79.9358 41.956C80.21 42.1889 80.323 42.5587 80.4505 42.8877C80.6742 43.4688 81.2586 44.4173 80.614 44.924C80.2123 45.2458 78.9881 45.5028 78.5599 45.181C78.2881 44.9745 78.0584 44.6154 77.9766 44.1591C77.9112 43.7942 77.9881 43.5795 77.9189 43.325C77.8734 42.8877 77.9189 42.6607 77.9766 42.1819C77.9603 42.1327 77.941 42.0846 77.9189 42.0378C77.6094 41.5447 77.6211 40.6961 77.3164 40.2046L79.0963 41.0987C79.1709 41.2668 79.2575 41.4205 79.3369 41.579C79.5317 41.7159 79.7434 41.7999 79.9358 41.956Z" fill="#D95F5F"/>
<path d="M77.9764 36.909C77.9764 36.909 79.2968 40.8635 79.2968 41.5226C79.2968 41.5226 78.1682 42.238 77.9764 42.1817C77.7846 42.1254 76.7221 40.4934 76.7221 40.4934C75.6927 39.1007 72.6116 33.6544 72.2339 31.6685C71.5388 28.0185 71.4258 23.468 73.4967 20.2238C73.5206 20.1865 73.5517 20.1543 73.5881 20.1291C73.6246 20.1038 73.6656 20.0859 73.709 20.0766C73.7523 20.0672 73.7972 20.0665 73.8408 20.0744C73.8845 20.0824 73.9261 20.0989 73.9633 20.123C73.6128 18.9837 73.1283 17.8899 72.5201 16.8644C72.3061 16.5138 72.8473 16.1584 73.0613 16.5138C75.2261 20.1254 75.3151 26.1959 75.9477 30.259C76.6561 32.9544 77.9764 36.909 77.9764 36.909Z" fill="black"/>
<path d="M65.8641 70.7958C65.7535 72.9162 66.7372 80.574 66.7276 82.7064C66.7276 83.5973 66.6362 85.3718 67.6416 85.6024C68.4209 85.7825 68.6711 84.7643 68.7841 84.0223C69.104 81.9283 69.4528 73.262 69.5057 71.12C69.5033 70.7045 65.8834 70.3852 65.8641 70.7958Z" fill="black"/>
<path d="M69.7086 84.4161C69.5617 84.3611 69.4335 84.2655 69.339 84.1405C69.2444 84.0155 69.1875 83.8663 69.1747 83.7101C69.1506 83.5829 69.1987 83.0858 69.1073 83.009C69.0159 82.9321 69.0616 82.9513 68.8908 82.9273C68.3183 82.8529 67.3466 82.8337 66.981 82.8289C66.8199 82.8289 66.7862 82.8481 66.7405 83.1746C66.7405 83.1939 66.6587 84.3609 66.6443 84.978C66.6275 85.6984 66.7237 85.917 67.3659 86.0706C68.9173 86.4429 70.7525 86.7142 72.3592 86.9952C72.4302 87.0019 72.501 86.9805 72.5564 86.9356C72.6117 86.8906 72.6472 86.8258 72.6551 86.755C72.8956 85.7369 72.8234 85.7945 71.9912 85.4367C71.5198 85.235 70.1151 84.5842 69.7086 84.4161Z" fill="#58C5AF"/>
<path d="M53.5138 69.6005C52.9176 71.6378 51.8776 78.9498 51.3751 81.0206C51.1648 81.8897 50.6732 83.5946 51.5965 84.0524C52.3131 84.4064 52.6542 83.4082 53.0712 82.7789C54.0773 81.2421 57.8205 71.5939 57.5076 67.7752C57.4734 67.3706 53.6286 69.2045 53.5138 69.6005Z" fill="black"/>
<path d="M53.8818 83.3731C53.7517 83.2857 53.6493 83.1632 53.5863 83.0198C53.5233 82.8765 53.5023 82.7183 53.5259 82.5635C53.5334 82.4353 53.6944 81.9618 53.6238 81.8657C53.5532 81.7696 53.6014 81.7947 53.432 81.7371C52.8908 81.532 51.9524 81.2904 51.5964 81.2008C51.4404 81.1617 51.4036 81.1732 51.2842 81.4825C51.29 81.5009 50.9332 82.6173 50.7739 83.216C50.5906 83.923 50.6355 84.1456 51.2238 84.4442C52.6478 85.1626 54.3697 85.8505 55.8688 86.495C55.9356 86.5174 56.0086 86.5132 56.0724 86.4833C56.1362 86.4534 56.1861 86.4001 56.2116 86.3345C56.674 85.4014 56.5965 85.4434 55.8694 84.8963C55.4563 84.5855 54.2403 83.6306 53.8818 83.3731Z" fill="#58C5AF"/>
<path d="M72.489 8.40475C72.2942 7.59551 71.8757 6.8415 71.5799 6.05627C71.5606 5.7633 71.5366 5.47274 71.5053 5.19418C71.2094 2.56953 69.1 -0.283234 65.9732 1.31365C63.0869 2.80007 62.1415 5.941 62.9954 8.63529C63.3803 11.1327 64.7777 12.9577 68.1259 12.8424C69.6412 12.7968 70.7356 12.7968 71.3105 11.5649C71.5798 10.991 71.563 10.0256 71.6737 9.36528C72.1643 9.23081 72.6333 9.00508 72.489 8.40475Z" fill="#D95F5F"/>
<path d="M68.0425 10.0878C68.0425 9.96295 68.0281 9.84769 68.016 9.71321C68.0089 9.65154 67.9799 9.59446 67.9342 9.55233C67.9341 9.49897 67.92 9.44657 67.8932 9.40037C67.8665 9.35417 67.8281 9.31579 67.7818 9.28905C67.7356 9.26232 67.6831 9.24817 67.6296 9.24802C67.5762 9.24786 67.5237 9.2617 67.4772 9.28818C67.5157 9.04804 67.5446 8.80792 67.5855 8.5894C67.5909 8.51174 67.5682 8.43473 67.5214 8.37244C67.4747 8.31014 67.407 8.26673 67.3309 8.25013C67.2547 8.23352 67.175 8.24483 67.1065 8.28199C67.038 8.31915 66.9852 8.37968 66.9577 8.45252C66.9577 8.47893 66.9577 8.50774 66.9409 8.53416V8.57018C66.9076 8.52037 66.8614 8.48048 66.8073 8.45476C66.7531 8.42904 66.693 8.41846 66.6333 8.42413C66.5736 8.42979 66.5166 8.45149 66.4682 8.48693C66.4199 8.52237 66.382 8.57023 66.3588 8.62541C66.3588 8.57498 66.3588 8.52216 66.3588 8.46933C66.3587 8.38821 66.3281 8.31008 66.2731 8.25035C66.2182 8.19062 66.1428 8.15363 66.0619 8.1467C65.9809 8.13976 65.9003 8.16338 65.8359 8.21288C65.7715 8.26239 65.7281 8.33417 65.7142 8.41409C65.7154 8.43328 65.7154 8.45254 65.7142 8.47173C65.6301 8.46507 65.5466 8.48991 65.4799 8.54141C65.4132 8.59291 65.3681 8.66738 65.3534 8.75028C65.3365 8.83913 65.3293 8.92557 65.3149 9.01442C65.2394 9.0085 65.1645 9.03171 65.1056 9.07926C64.9421 8.91837 64.3071 8.47653 64.2662 8.77669C64.093 10.0422 63.5446 14.7176 63.8092 15.2963C63.8768 15.3982 63.9654 15.4845 64.0691 15.5496C64.1728 15.6146 64.2892 15.6568 64.4105 15.6733C64.4105 15.7814 64.3913 15.8894 64.384 15.9975C64.3841 16.0786 64.4147 16.1567 64.4697 16.2165C64.5246 16.2762 64.6 16.3132 64.681 16.3201C64.7619 16.327 64.8425 16.3034 64.9069 16.2539C64.9713 16.2044 65.0148 16.1326 65.0287 16.0527C65.0287 15.9927 65.0431 15.935 65.0527 15.875H65.0696C65.0696 16.0623 65.0503 16.2496 65.031 16.4393C65.0269 16.4919 65.036 16.5446 65.0574 16.5927C65.0788 16.6409 65.1119 16.683 65.1537 16.7151C65.1954 16.7473 65.2446 16.7686 65.2967 16.777C65.3488 16.7855 65.4021 16.7808 65.452 16.7635C65.4964 16.8355 65.5669 16.8878 65.6487 16.9097C65.7305 16.9315 65.8176 16.9213 65.8921 16.8812C65.9194 16.9241 65.9564 16.96 66.0002 16.9861C66.0439 17.0121 66.0932 17.0275 66.144 17.031C66.1948 17.0345 66.2457 17.026 66.2926 17.0063C66.3396 16.9865 66.3811 16.956 66.4141 16.9172C66.437 16.9868 66.483 17.0466 66.5444 17.0869C66.6058 17.1271 66.679 17.1454 66.7521 17.1387C66.8253 17.132 66.894 17.1007 66.947 17.0501C67.0001 16.9994 67.0344 16.9322 67.0443 16.8596C67.0443 16.7947 67.0563 16.7299 67.066 16.6674C67.1242 16.7024 67.192 16.7181 67.2598 16.7125C67.3275 16.7069 67.3918 16.6803 67.4435 16.6362L67.8645 16.7683C67.911 16.7846 67.9607 16.79 68.0097 16.7843C68.0587 16.7785 68.1057 16.7617 68.1472 16.7351C68.1887 16.7084 68.2236 16.6727 68.2492 16.6306C68.2748 16.5886 68.2905 16.5412 68.295 16.4922C68.2439 14.3733 68.3751 12.2539 68.6871 10.1575C68.728 9.77324 68.1339 9.71081 68.0425 10.0878Z" fill="#D95F5F"/>
<path d="M72.7969 16.3673C72.1728 15.8488 71.4541 15.4557 70.6803 15.2099C70.4966 15.4989 70.2414 15.7357 69.9393 15.8976C69.6372 16.0596 69.2985 16.1411 68.9557 16.1344C66.7909 16.1704 64.6407 16.437 62.4855 16.1344C61.8169 16.0407 61.3334 15.5076 61.0881 14.8833C58.7622 15.3155 56.6936 16.4442 56.316 19.0064C56.2414 19.5155 57.3936 20.3271 57.4922 21.4365C57.8433 25.3507 57.901 32.0552 58.0574 34.1635C58.0574 34.2908 57.295 34.5526 57.4369 34.5261C59.7098 34.1035 61.9804 34.1875 64.2702 34.4133C66.0213 34.5838 68.0609 35.1193 69.8168 34.9103C70.2137 34.8647 70.2979 34.8383 70.5384 34.5501C71.1012 33.861 73.9755 22.4955 74.0813 20.5961C74.1583 19.0592 74.0813 17.4119 72.7969 16.3673Z" fill="#58C5AF"/>
<path d="M64.2979 30.9602C64.3093 30.9221 64.3134 30.8821 64.3098 30.8425C64.1968 29.6707 62.7224 29.7259 61.8156 29.5218C59.6793 29.0309 57.5755 28.4086 55.5162 27.6584C56.2864 25.2551 57.2961 22.9351 58.53 20.7329C58.7922 20.2527 59.1746 19.686 59.5402 19.1C59.1818 18.9871 58.8554 18.7909 58.5877 18.5275C58.3201 18.2641 58.119 17.941 58.0008 17.5848C57.8656 17.1547 57.7848 16.7094 57.7603 16.2593C54.1812 18.8791 52.7453 23.8283 51.7351 27.9177C51.5716 28.5733 51.1987 29.9828 51.6052 30.6336C52.0646 31.3756 53.5583 31.2916 54.2631 31.354C57.4837 31.647 60.9136 31.4116 64.1415 31.2195C64.3988 31.2075 64.358 31.1427 64.2979 30.9602Z" fill="black"/>
<path fill-rule="evenodd" clip-rule="evenodd" d="M73.1424 45.685C73.5965 47.1137 74.0488 48.5369 74.0629 50.1276C74.0731 51.3081 73.977 52.4256 73.8825 53.525C73.8417 53.9994 73.8012 54.4704 73.7696 54.9417C73.9401 55.6966 74.0559 56.4723 74.0629 57.2909C74.0691 58.0232 74.0369 58.7319 73.9897 59.4272C74.0189 59.5662 74.0508 59.7061 74.0856 59.8469C74.558 61.7485 74.974 63.5979 74.4043 65.5256C74.2928 65.9045 74.1159 66.2686 73.9381 66.6327C73.9803 66.8642 74.0291 67.0979 74.0856 67.3342C74.558 69.2992 74.974 71.2102 74.4043 73.2022C74.2915 73.5985 74.1116 73.9791 73.9317 74.3599C73.7151 74.8183 73.4984 75.2769 73.3983 75.7633C73.3273 76.1103 73.3683 76.6354 73.4116 77.1888C73.4647 77.8679 73.5212 78.5896 73.378 79.0776C73.3551 79.1573 73.3353 79.2462 73.3146 79.3388C73.2495 79.6307 73.1764 79.9584 72.9756 80.1447C71.9064 81.1161 62.1563 79.1413 59.3283 78.5624C56.9662 78.0772 54.7602 77.9695 52.4818 77.8582C51.3042 77.8007 50.1073 77.7422 48.8594 77.6302C48.5814 77.6056 48.4187 77.272 48.378 77.0267C48.0158 74.654 48.6429 72.2053 49.2761 69.8452C49.1378 69.8343 48.999 69.8228 48.8594 69.8107C48.5814 69.787 48.4187 69.4641 48.378 69.2267C48.0042 66.857 48.6841 64.4089 49.337 62.0577C49.628 61.0099 49.9136 59.9813 50.0982 58.9875C50.2726 58.0435 50.3593 57.0929 50.4456 56.1469C50.612 54.3212 50.777 52.5126 51.5676 50.8018C51.8902 50.1035 52.2986 49.4561 52.7069 48.8088C53.1397 48.1225 53.5725 47.4364 53.9029 46.69C54.6943 44.9004 54.7847 43.0753 54.8779 41.1933C54.8925 40.8983 54.9072 40.6018 54.9247 40.3038C55.0535 38.1055 56.5139 34.6109 58.3947 32.9965C58.5504 32.8635 60.1778 33.0679 62.1582 33.3168C63.8879 33.5341 65.887 33.7853 67.41 33.8749C68.0094 33.9099 68.4676 33.6332 68.8584 33.397C69.4213 33.057 69.8445 32.8013 70.3488 33.6826C71.3754 35.4707 71.9382 39.6737 72.24 41.9275C72.2611 42.0856 72.281 42.2342 72.2997 42.3716C72.4571 43.5286 72.8003 44.6083 73.1424 45.685Z" fill="#58C5AF"/>
<path d="M60.7246 18.8647C60.9126 17.6888 60.9191 16.4911 60.7439 15.3132C60.715 15.1259 60.5033 15.073 60.347 15.0874C59.255 15.2339 58.6008 15.5389 57.492 16.2881C57.4081 16.3269 57.3371 16.3889 57.2877 16.4668C57.2382 16.5448 57.2122 16.6353 57.2129 16.7275C57.4294 19.4298 57.6451 22.1321 57.86 24.8344C57.8936 25.245 58.5406 25.2498 58.507 24.8344C58.4156 23.6834 58.3234 22.534 58.2304 21.3861C58.2766 21.4122 58.3288 21.4259 58.3819 21.4259C58.435 21.4259 58.4872 21.4122 58.5335 21.3861C58.6351 21.3111 58.7175 21.2132 58.774 21.1004C58.8428 21.1361 58.922 21.1463 58.9977 21.1292C59.2382 21.0619 59.2863 20.9515 59.3993 20.733C59.3993 20.733 59.3993 20.733 59.3993 20.7209C59.4342 20.7296 59.4705 20.7303 59.5056 20.7231C59.5408 20.7159 59.5738 20.7009 59.6024 20.6792C59.631 20.6576 59.6545 20.6298 59.6709 20.598C59.6874 20.5662 59.6965 20.531 59.6976 20.4952C59.7728 19.9381 59.8105 19.3765 59.8106 18.8143C59.8768 18.7975 59.9358 18.76 59.9791 18.7073C60.0224 18.6545 60.0476 18.5894 60.0511 18.5213C60.0511 18.4493 60.0512 18.3773 60.068 18.3052C60.068 18.4925 60.08 18.6798 60.08 18.8695C60.08 19.2177 60.6549 19.3258 60.715 18.956C60.715 18.9272 60.715 18.8983 60.727 18.8695L60.7246 18.8647Z" fill="#58C5AF"/>
<path d="M70.9736 2.68237C70.5865 2.05253 70.0286 1.54504 69.3646 1.21865C68.7005 0.892269 67.9574 0.760343 67.2214 0.838156C66.2064 0.927005 64.5034 1.76027 63.854 2.31738C61.2082 4.5362 61.4487 8.12858 62.2016 11.147C62.3724 11.829 62.6805 12.2515 63.4526 12.5228C64.3305 12.8326 65.207 12.4545 65.4331 11.8637C65.7362 11.0689 65.5232 11.344 65.6988 10.5155C65.8383 9.86473 65.9682 9.13234 66.3025 8.54161C66.6946 7.84763 67.2647 7.55226 67.8299 7.06479C68.2629 6.68778 68.311 6.92311 68.5756 6.26995C69.1216 4.89399 69.0278 3.62849 70.8558 3.31152C71.1324 3.25869 71.1564 2.83846 70.9736 2.68237Z" fill="#301824"/>
<path d="M63.9372 29.4091C64.2884 29.301 64.6539 29.4211 64.9979 29.4979C65.6016 29.642 66.7225 29.6732 66.7922 30.5016C66.8283 31.0155 66.3737 32.173 65.8662 32.3507C65.5439 32.4635 65.123 32.3555 64.6972 32.1706C64.4356 32.1333 64.178 32.0722 63.9276 31.9881C63.5235 31.8464 63.2493 31.4934 62.8356 31.3661C62.7851 31.3512 62.7337 31.34 62.6816 31.3325L62.7939 29.6591L63.2925 29.6972C63.5114 29.6108 63.6967 29.4835 63.9372 29.4091Z" fill="#D95F5F"/>
<path d="M64.7743 6.59091C67.2677 5.28974 70.0557 3.95455 71.3761 3.29545C72.6964 2.63636 70.0557 0 67.415 0C64.4823 0 61.5085 0.519372 60.8133 3.29551C60.1531 5.93182 60.9498 7.47327 61.9888 10.5455C61.781 9.46118 62.2808 7.89208 64.7743 6.59091Z" fill="black"/>
<path d="M69.3953 12.5228C68.7394 11.8637 67.4148 9.2273 69.3953 3.95458C69.1752 3.73488 64.642 3.95458 64.1139 3.95458C63.4537 3.95458 60.1566 3.29552 60.813 7.25003C61.0721 8.81057 62.7974 11.2046 62.1334 13.8409C61.2531 14.2803 60.1528 13.8409 59.4927 15.1592C58.7591 15.8182 60.1248 18.0599 64.0408 18.4546C67.4064 18.7938 72.6237 18.4546 73.2839 16.4773C72.6237 14.5001 68.7394 15.1592 69.3953 12.5228Z" fill="black"/>
<path d="M19.7729 15.306C19.6551 14.9146 19.0177 15.0227 19.1356 15.4213C21.5185 23.4375 22.0562 31.8877 20.7086 40.1405C20.6412 40.5487 21.2859 40.6064 21.3508 40.1981C22.7076 31.8879 22.1682 23.3791 19.7729 15.306Z" fill="#9E4D4D"/>
<path d="M26.8946 46.8234C26.9583 46.4654 26.9231 46.0949 26.7926 45.7491C26.6732 45.5235 26.5019 45.3593 26.3753 45.1454C26.3558 44.7496 26.3301 44.3545 26.283 43.9688C26.286 43.6159 26.2308 43.2632 26.1196 42.9241C25.8984 42.4905 25.2213 42.6203 24.8259 42.7478C24.7741 42.4005 24.212 42.4427 24.2656 42.7935L24.5693 44.7976C24.5715 44.8513 24.5692 44.905 24.5626 44.9582C24.5064 45.3898 24.1917 45.7177 24.1197 46.1437C24.079 46.4072 24.0633 46.6743 24.0727 46.9418C23.9589 47.3929 23.9239 47.8321 24.101 48.1384C24.3749 48.6165 25.6579 48.9061 26.179 48.7864C27.0367 48.5781 26.8633 47.4526 26.8946 46.8234Z" fill="#794343"/>
<path d="M20.6062 77.7502C20.6062 77.9759 20.6062 78.1992 20.6062 78.4226C20.5517 77.9423 20.4932 77.462 20.4307 76.9818C20.4292 76.9487 20.4213 76.9161 20.4073 76.8861C20.3933 76.856 20.3735 76.829 20.349 76.8066C20.3246 76.7842 20.296 76.7668 20.2648 76.7555C20.2336 76.7441 20.2005 76.739 20.1673 76.7404C20.1341 76.7419 20.1016 76.7498 20.0715 76.7638C20.0414 76.7777 20.0143 76.7975 19.9919 76.8219C19.9694 76.8463 19.952 76.8749 19.9406 76.9061C19.9292 76.9372 19.9241 76.9703 19.9255 77.0034C19.9135 77.3011 19.9111 77.6013 19.9039 77.8991C19.8985 77.8738 19.8912 77.8489 19.8823 77.8246C19.8823 77.755 19.863 77.683 19.8558 77.6133C19.856 77.5666 19.8434 77.5207 19.8194 77.4805C19.7953 77.4404 19.7608 77.4076 19.7195 77.3856C19.6782 77.3636 19.6316 77.3533 19.5848 77.3558C19.5381 77.3582 19.4929 77.3734 19.4541 77.3996C19.4541 77.2363 19.4373 77.0754 19.4277 76.9193C19.406 76.5087 17.9677 73.483 17.9845 73.8961C18.0976 76.0164 19.0669 81.1 19.2785 83.2324C19.3675 84.1209 19.4661 85.8931 20.4812 86.0204C21.2749 86.1188 21.4168 85.079 21.4433 84.3394C21.5443 82.2239 21.2942 79.9786 21.1138 77.8559C21.0873 77.4116 20.6159 77.3348 20.6062 77.7502Z" fill="#794343"/>
<path d="M22.4162 84.6058C22.2645 84.5665 22.1271 84.4849 22.0202 84.3705C21.9133 84.2561 21.8413 84.1137 21.8125 83.9599C21.774 83.835 21.7716 83.3355 21.6729 83.2683C21.5743 83.2011 21.62 83.2155 21.4493 83.2107C20.872 83.1963 19.9051 83.2779 19.5395 83.3091C19.3783 83.3235 19.3495 83.3476 19.3398 83.6789C19.3398 83.6957 19.3808 84.8652 19.4313 85.4823C19.4914 86.2027 19.6069 86.4068 20.2635 86.4933C21.8438 86.7022 23.6958 86.7814 25.3146 86.8943C25.3852 86.8937 25.453 86.8659 25.5036 86.8167C25.5542 86.7675 25.5839 86.7007 25.5863 86.6302C25.721 85.5928 25.6537 85.6696 24.7854 85.3887C24.3044 85.2302 22.8347 84.7307 22.4162 84.6058Z" fill="#1C1C1C"/>
<path d="M6.23727 75.3799C6.12182 75.572 6.01119 75.7666 5.89574 75.9587C6.08576 75.5096 6.27333 75.0606 6.45854 74.6067C6.49043 74.5468 6.49723 74.4768 6.47739 74.4119C6.45754 74.3471 6.41268 74.2928 6.35272 74.2609C6.29275 74.2291 6.2226 74.2223 6.15764 74.2421C6.09269 74.2619 6.03827 74.3067 6.00637 74.3666C5.85003 74.6211 5.70087 74.8805 5.54693 75.1374C5.55532 75.1132 5.56178 75.0883 5.56619 75.063C5.59265 74.9957 5.61913 74.9309 5.64799 74.8637C5.66972 74.8233 5.68033 74.7779 5.67876 74.7321C5.67719 74.6862 5.66345 74.6417 5.639 74.6029C5.61456 74.5641 5.58027 74.5324 5.53959 74.5112C5.49891 74.4899 5.45333 74.4798 5.40746 74.4818C5.48203 74.3354 5.55416 74.1889 5.62632 74.0424C5.80912 73.675 6.04724 70.3348 5.86685 70.7046C4.91917 72.6064 3.25473 77.5195 2.39365 79.4718C2.03285 80.2883 1.24872 81.8731 2.07854 82.4927C2.72075 82.9729 3.35574 82.1325 3.76223 81.4985C4.89031 79.7047 5.77787 77.6276 6.67023 75.6801C6.82898 75.3199 6.45615 75.0269 6.23727 75.3799Z" fill="#794343"/>
<path d="M4.44325 82.2309C4.33056 82.122 4.25109 81.9834 4.21406 81.8313C4.17702 81.6791 4.18391 81.5196 4.23397 81.3712C4.26283 81.2463 4.5058 80.8069 4.45288 80.7012C4.39997 80.5956 4.4336 80.6292 4.28687 80.5403C3.79139 80.245 2.90868 79.8415 2.57435 79.6903C2.42763 79.6254 2.38915 79.6302 2.21837 79.9136C2.21837 79.9328 1.67235 80.9678 1.41018 81.5297C1.10471 82.1924 1.10956 82.423 1.63632 82.8192C2.91111 83.7797 4.48651 84.7546 5.84789 85.6527C5.90982 85.6864 5.9824 85.695 6.05049 85.6766C6.11857 85.6583 6.17693 85.6145 6.2135 85.5543C6.84128 84.7162 6.74751 84.7474 6.12935 84.0799C5.77818 83.7053 4.74872 82.5502 4.44325 82.2309Z" fill="#1C1C1C"/>
<path d="M26.0932 9.61242C26.0359 8.76871 25.9282 7.92915 25.7709 7.09822C25.8069 6.80526 25.8406 6.5171 25.8623 6.23854C26.0812 3.59709 24.3349 0.319279 20.9675 1.28701C17.8407 2.18511 16.3157 5.08832 16.638 7.89546C16.5346 10.4217 17.5545 12.458 20.8593 13.0127C22.3554 13.2528 23.4281 13.4713 24.2267 12.3739C24.6019 11.8601 24.7727 10.9091 25.0084 10.2848C25.4991 10.2488 26.1172 10.2296 26.0932 9.61242Z" fill="#794343"/>
<path d="M21.5306 10.3208C21.5306 10.1935 21.5306 10.0807 21.5306 9.9438C21.5283 9.88194 21.5035 9.82305 21.4609 9.77812C21.4648 9.7248 21.4545 9.67138 21.4311 9.62331C21.4076 9.57524 21.3719 9.53423 21.3274 9.50446C21.2829 9.47469 21.2313 9.45722 21.1778 9.45383C21.1244 9.45044 21.071 9.46125 21.0231 9.48515C21.076 9.24502 21.1217 9.0217 21.1746 8.79357C21.2588 8.44058 20.6767 8.27008 20.5589 8.61588C20.5589 8.64229 20.5468 8.67111 20.5372 8.69753C20.5361 8.71031 20.5361 8.72316 20.5372 8.73594C20.5073 8.68404 20.4639 8.64121 20.4115 8.61198C20.3592 8.58275 20.2999 8.56822 20.24 8.56994C20.18 8.57167 20.1216 8.58958 20.0711 8.62177C20.0205 8.65396 19.9796 8.69922 19.9527 8.75275C19.9527 8.69992 19.9528 8.64709 19.9648 8.59426C19.9699 8.51329 19.9444 8.43336 19.8933 8.37025C19.8423 8.30713 19.7693 8.26543 19.689 8.25336C19.6086 8.2413 19.5266 8.25975 19.4592 8.30508C19.3918 8.35042 19.3439 8.41933 19.3249 8.49821V8.55584C19.2413 8.5438 19.1561 8.56316 19.0859 8.61017C19.0157 8.65719 18.9655 8.72853 18.9449 8.81038C18.9233 8.89683 18.9089 8.98328 18.8896 9.06973C18.8145 9.05894 18.7379 9.07695 18.6755 9.12015C18.6337 9.0754 18.5805 9.04291 18.5215 9.02616C18.4625 9.0094 18.4001 9.00904 18.3409 9.0251C18.2818 9.04116 18.2282 9.07303 18.1858 9.11729C18.1435 9.16155 18.1141 9.21651 18.1007 9.27624C17.8425 10.5265 17.5867 11.7768 17.3334 13.0271C17.2107 13.6178 16.7465 14.6456 16.9702 15.2411C17.0315 15.347 17.1147 15.4386 17.2142 15.5098C17.3138 15.581 17.4274 15.6303 17.5475 15.6542C17.533 15.7622 17.5138 15.8703 17.4994 15.9783C17.4943 16.0593 17.5198 16.1392 17.5708 16.2024C17.6219 16.2655 17.6948 16.3072 17.7751 16.3192C17.8555 16.3313 17.9375 16.3129 18.0049 16.2675C18.0723 16.2222 18.1202 16.1533 18.1392 16.0744C18.1512 16.0168 18.1608 15.9591 18.1729 15.8991H18.1921C18.168 16.0864 18.1463 16.2737 18.1151 16.461C18.1076 16.5132 18.1132 16.5664 18.1315 16.6158C18.1497 16.6653 18.18 16.7094 18.2197 16.7442C18.2593 16.779 18.307 16.8034 18.3585 16.8152C18.4099 16.8269 18.4635 16.8257 18.5144 16.8116C18.5536 16.8866 18.6201 16.9436 18.7003 16.9709C18.7805 16.9982 18.8681 16.9936 18.9449 16.9581C18.9691 17.0028 19.0035 17.0413 19.0453 17.0702C19.0872 17.0991 19.1353 17.1178 19.1857 17.1246C19.2362 17.1314 19.2875 17.1261 19.3355 17.1093C19.3835 17.0925 19.4269 17.0645 19.4621 17.0277C19.4795 17.0999 19.5212 17.164 19.5802 17.2092C19.6392 17.2543 19.712 17.2779 19.7864 17.276C19.8607 17.274 19.9322 17.2466 19.9887 17.1983C20.0453 17.1501 20.0835 17.0839 20.0971 17.0109C20.0971 16.9485 20.1163 16.8836 20.1307 16.8212C20.1857 16.8609 20.2517 16.8822 20.3195 16.8822C20.3873 16.8822 20.4534 16.8609 20.5084 16.8212L20.9221 16.9797C20.9669 16.9989 21.0155 17.0077 21.0643 17.0056C21.1131 17.0034 21.1607 16.9903 21.2037 16.9672C21.2467 16.9442 21.2839 16.9117 21.3126 16.8723C21.3413 16.8329 21.3607 16.7875 21.3694 16.7396C21.4592 14.6225 21.7295 12.5169 22.1776 10.4457C22.2402 10.0519 21.6461 9.95101 21.5306 10.3208Z" fill="#794343"/>
<path d="M22.0838 80.1033C21.622 74.6979 21.5523 69.3238 21.5739 63.9064C21.5884 60.1195 20.5204 56.9161 19.3394 53.3622C17.8963 49.0086 16.4723 44.6429 15.0099 40.299C13.865 36.9203 11.544 36.9779 8.17176 36.8122C8.2776 36.2887 8.4123 35.7652 8.547 35.249C8.7731 34.4541 7.56324 33.9955 7.34436 34.7927C6.33896 38.3515 6.1417 42.0135 7.01241 45.6227C7.98654 49.6569 10.8993 52.7786 11.289 56.9089C11.4333 58.4482 11.5536 59.7113 12.5469 60.9575C13.1242 61.6779 13.9901 62.1798 14.5217 62.9386C15.6473 64.5331 15.2433 66.3797 15.2216 68.1159C15.2049 72.5015 16.0397 76.8488 17.6798 80.9174C17.7261 81.0205 17.7995 81.1091 17.8923 81.1738C17.985 81.2385 18.0937 81.2768 18.2066 81.2848C19.344 81.2973 20.4775 81.1502 21.5739 80.8477C21.7365 80.8093 21.8788 80.7117 21.9731 80.574C22.0674 80.4363 22.1069 80.2685 22.0838 80.1033Z" fill="#F9B34A"/>
<path d="M5.7021 78.9314C8.46095 74.2584 11.5205 69.8352 14.681 65.4288C16.8866 62.3527 17.8752 59.1229 18.9744 55.5425C20.3213 51.1553 21.6948 46.7777 23.0153 42.3832C24.0399 38.9661 22.1157 37.6742 19.4627 35.5875C19.8523 35.2225 20.2564 34.8671 20.6653 34.5309C21.3099 34.0122 20.5907 32.9388 19.9437 33.4599C17.0574 35.782 14.7748 38.6516 13.3918 42.1047C11.8476 45.9468 12.4104 50.1851 10.3298 53.7823C9.55534 55.1199 8.92035 56.2197 9.00694 57.8093C9.05745 58.7339 9.47114 59.6392 9.46633 60.5661C9.46633 62.5208 8.05687 63.7862 7.03463 65.1934C4.47712 68.7589 2.63676 72.7859 1.61554 77.0512C1.59355 77.1619 1.60183 77.2766 1.6395 77.383C1.67716 77.4895 1.74279 77.5839 1.82958 77.6563C2.7511 78.3232 3.76146 78.8583 4.83136 79.246C4.98911 79.3159 5.16781 79.3221 5.33009 79.2635C5.49237 79.2049 5.62567 79.0859 5.7021 78.9314Z" fill="#F9B34A"/>
<path d="M26.7593 21.9313C26.9589 19.4483 25.7178 18.022 23.873 16.4083C23.3691 15.9716 22.8354 15.5704 22.2758 15.2076C21.9802 15.3568 21.6654 15.4642 21.3402 15.527C20.9106 15.6002 20.4743 15.6267 20.0389 15.6062C19.5843 15.6062 19.1418 15.491 18.692 15.4429C18.2281 15.3974 17.7823 15.2392 17.3937 14.9822C17.0051 14.7252 16.6853 14.3772 16.4623 13.9685C13.5231 15.0635 10.6897 15.9208 8.30363 18.0508C5.9176 20.1807 4.21462 22.8702 2.78589 25.663C2.0138 27.1734 1.13351 28.7583 0.601941 30.3672C0.327739 31.2028 0.361399 32.0337 1.00842 32.7013C1.69633 33.4217 2.78112 33.6618 3.7312 33.8299C4.68677 33.9877 5.65035 34.0927 6.61753 34.1445C6.49246 35.1362 6.37697 36.128 6.28076 37.1221C6.14847 38.5149 5.66019 40.4263 5.97047 41.8023C5.99312 42.0097 6.0767 42.2059 6.21064 42.3661C6.34458 42.5263 6.52295 42.6434 6.72335 42.7028C7.99574 43.2719 9.93441 43.2647 11.315 43.4424C14.3798 43.8587 17.4758 43.9986 20.5657 43.8602C21.4436 43.8146 23.1177 43.9899 23.8225 43.3535C24.4045 42.83 24.3035 41.6414 24.378 40.9522C25.1694 34.6415 26.247 28.2852 26.7593 21.9313Z" fill="#58C5AF"/>
<path d="M25.768 3.46746C25.8354 2.43249 24.9575 -0.374662 23.6658 0.746757C23.1703 0.302512 22.5979 -0.0624898 21.8908 0.0263593C21.2486 0.1008 20.9671 0.506624 20.3417 0.506624C19.0982 0.506624 17.3713 0.165645 17.3905 1.73131C15.9329 1.67128 14.8 2.84072 15.1945 4.39918C15.7813 6.71886 15.8006 8.02037 16.8781 10.2464C16.9455 10.3833 17.518 11.4471 17.631 11.4759C17.7922 11.5263 18.509 10.5322 18.8337 10.0183C19.1824 9.44917 19.4302 8.6207 20.0892 8.23889C20.5871 7.95313 21.0922 8.28452 21.5179 8.04198C21.8379 7.879 22.082 7.59832 22.1986 7.25915C22.8938 5.64786 23.2834 4.0894 25.6069 4.21187C25.9244 4.21187 25.7608 3.5443 25.768 3.46746Z" fill="#C4C4C4"/>
<path d="M26.8366 32.7824C26.5127 36.042 26.314 39.4387 27.339 42.6039C27.5048 43.1151 27.9224 44.1907 27.5187 44.3174C26.6937 44.5763 24.6415 44.8586 23.8455 44.9661C23.7747 44.9687 23.7049 44.949 23.6459 44.91C23.5869 44.871 23.5416 44.8145 23.5164 44.7484C19.9467 37.2857 18.8567 26.1548 25.6643 20.0405C25.708 20.0005 25.7616 19.9732 25.8196 19.9613C25.8776 19.9494 25.9378 19.9535 25.9937 19.9731L26.4854 20.0405C27.8058 24.3863 27.356 27.5246 26.8366 32.7824Z" fill="#58C5AF"/>
<path fill-rule="evenodd" clip-rule="evenodd" d="M10.3907 34.8985L10.3994 34.8984C11.6296 34.8984 12.3955 35.6955 12.8183 36.3702C13.0332 36.7131 13.1783 37.0511 13.2697 37.3007C13.3157 37.4264 13.349 37.5323 13.3712 37.6085C13.3823 37.6467 13.3907 37.6776 13.3966 37.7001C13.3995 37.7113 13.4018 37.7204 13.4035 37.7273L13.4056 37.7359L13.4063 37.7389L13.4067 37.7406C13.4067 37.7406 13.4069 37.7411 12.8215 37.8785L13.4067 37.7406C13.4828 38.0634 13.2824 38.387 12.9591 38.4629C12.6364 38.5386 12.3132 38.3393 12.2365 38.0174M10.4037 36.0991C10.149 36.1035 9.89955 36.1726 9.67904 36.3C9.45725 36.4281 9.27208 36.6109 9.14121 36.8308C9.13663 36.8384 9.13189 36.846 9.12697 36.8535C8.81453 37.3288 8.65122 37.8864 8.65791 38.4549L8.65795 38.462V86.3996C8.65795 86.7312 8.38873 87 8.05664 87C7.72454 87 7.45532 86.7312 7.45532 86.3996V38.4654C7.44661 37.6637 7.67593 36.8774 8.11434 36.2057C8.34983 35.8145 8.68096 35.4894 9.07675 35.2608C9.47653 35.0298 9.92895 34.9051 10.3907 34.8985" fill="#442232"/>
<path d="M10.9713 36.8845C11.486 36.8388 11.8733 36.0416 12.0633 35.6526C12.7175 34.3271 9.3886 33.5683 9.10959 33.5923L9.02785 33.5659C8.34956 33.3473 7.82519 33.2537 7.19982 32.8719C7.15951 32.8453 7.11373 32.828 7.06587 32.8213C7.01802 32.8146 6.96927 32.8186 6.92318 32.8331C6.87708 32.8476 6.83482 32.8722 6.79945 32.9051C6.76408 32.9379 6.73653 32.9783 6.71877 33.0232C6.5961 33.5322 6.33149 33.7099 6.69228 34.135C7.05307 34.56 7.79393 34.6993 8.34714 34.9274C8.36398 35.0547 8.31344 35.583 8.3856 35.6814C8.59005 35.9672 10.5672 36.9205 10.9713 36.8845Z" fill="#794343"/>
<path d="M4.74429 35.5324C5.22537 35.8352 5.78003 36.0012 6.34859 36.0127C6.52949 36.0318 6.71229 36.0212 6.88978 35.9815C7.6282 35.787 8.10927 34.6679 8.41234 34.046C8.80199 33.2368 8.96074 32.7853 8.35702 32.0985C8.01547 31.7119 7.65469 31.3373 7.27946 30.9699C7.28096 30.9254 7.27058 30.8813 7.24946 30.842C7.22833 30.8028 7.19722 30.7699 7.1592 30.7466C7.06539 30.6889 6.96679 30.6337 6.86817 30.5809C5.86758 29.6203 4.81165 28.715 3.85195 27.7521C3.56091 27.4616 3.05578 27.8626 3.34922 28.1579C3.94894 28.7583 4.55347 29.3554 5.16281 29.9493C3.78699 29.6396 2.27649 29.7452 1.20133 30.6121C-0.448688 31.9376 2.79845 34.411 3.86158 35.0281L4.20792 35.2226C4.36635 35.3513 4.54202 35.4572 4.72985 35.5372L4.74429 35.5324ZM1.82185 31.5414C2.12732 29.9829 4.54707 30.3408 6.0191 30.9075C5.27106 30.9579 4.35704 30.809 3.77978 30.7826C3.71726 30.7807 3.6554 30.7959 3.60097 30.8267C3.54654 30.8574 3.50165 30.9025 3.47113 30.957C3.44061 31.0115 3.42565 31.0733 3.42791 31.1357C3.43017 31.1981 3.44955 31.2587 3.48393 31.3109H3.45263C3.37159 31.3085 3.29262 31.3365 3.23119 31.3893C3.16976 31.4421 3.13032 31.516 3.12068 31.5964C3.11103 31.6767 3.13186 31.7578 3.17905 31.8236C3.22623 31.8894 3.2964 31.9352 3.37571 31.952C3.67877 32.0049 3.97944 32.0481 4.2825 32.0841C3.80145 32.0841 3.32039 32.1081 2.83934 32.1561C2.66616 32.1561 2.49294 32.1682 2.31735 32.1802C2.26335 32.1824 2.21169 32.2027 2.17066 32.2378H2.09127C2.02 32.2455 1.95364 32.2778 1.90365 32.329C1.80188 32.0771 1.77351 31.8016 1.82185 31.5342V31.5414Z" fill="#58C5AF"/>
<path d="M42.5297 13.6183C42.6022 13.4872 42.3788 13.3322 42.1878 13.2971C40.3982 12.9833 38.7004 13.2971 37.2642 14.4046C35.2588 15.9699 35.5262 18.6833 33.7443 20.411C33.0128 21.1217 32.1572 21.7364 31.5613 22.5688C30.8967 23.4918 30.7974 24.5864 30.5224 25.6607C30.1671 27.0746 29.0174 27.9015 28.3795 29.1678C27.8947 30.1504 27.6746 31.2355 27.7397 32.3224C27.7402 32.3878 27.7673 32.4505 27.8152 32.4967C27.8631 32.543 27.9279 32.5692 27.9956 32.5697C29.7507 32.5225 31.5069 32.6096 33.2478 32.83C34.1492 32.9426 35.0679 33.0976 35.9216 32.686C36.8192 32.2504 37.4495 31.3588 38.0224 30.5873C38.8398 29.4569 39.5433 28.2534 40.1233 26.9934C41.2405 24.6251 42.1171 22.1221 42.9174 19.6376C43.5438 17.6644 44.1645 15.2537 42.5297 13.6183Z" fill="black"/>
<path d="M40.4273 13.364C40.6733 13.2356 40.932 13.1334 41.1994 13.0591C41.3081 13.2453 41.4398 13.4172 41.5914 13.5706C42.087 14.0547 42.7502 14.3299 43.4435 14.339H43.9246C44.1509 14.3359 44.3757 14.3028 44.5933 14.2405C45.1997 14.9908 45.5883 15.8928 45.7165 16.8484C45.7502 17.1029 45.7838 17.7729 45.8055 18.049C46.0845 18.7694 46.3732 19.0864 46.5608 19.8212C46.7003 20.3663 46.1543 20.5008 45.7213 20.6257C45.6299 21.226 45.6564 22.1073 45.4207 22.6332C44.9132 23.7618 43.9174 23.7762 42.5343 23.8338C39.4869 23.9755 38.1904 22.3426 37.8031 20.0733C37.0046 17.6312 37.808 14.7568 40.4273 13.364Z" fill="#D95F5F"/>
<path d="M39.222 20.8899C39.1619 22.0497 38.688 27.9425 38.9694 28.4492C39.0777 28.6413 43.1546 29.3953 43.133 29.1984C42.9261 27.2774 42.9309 23.32 43.0536 21.3845C43.0728 21.0051 39.2364 20.6017 39.222 20.8899Z" fill="#D95F5F"/>
<path d="M43.9661 66.0748C46.013 68.7379 47.9661 71.4442 48.6997 74.7412C49.3996 77.8894 50.1116 81.1264 50.5999 84.3129C50.6263 84.4882 50.1188 84.6275 50.2896 84.6587L51.8362 84.9613C52.1007 85.0117 52.2547 84.7427 52.2426 84.5242C51.9564 79.4526 52.0286 74.1985 51.2132 69.175C50.4916 64.7061 48.5121 60.5758 46.571 56.5296C46.3618 56.0949 45.6787 56.4071 45.8879 56.8442C46.0972 57.2812 46.3065 57.7158 46.5133 58.1529C44.6348 58.5083 42.3426 59.6657 41.6138 61.5868C40.9691 63.2941 43.0545 64.8886 43.9661 66.0748Z" fill="#D95F5F"/>
<path d="M52.8414 84.7955C52.7107 84.76 52.5927 84.6885 52.5008 84.5891C52.4089 84.4897 52.3469 84.3665 52.3219 84.2336C52.2906 84.1256 52.2882 83.6933 52.204 83.6357C52.1198 83.5781 52.1607 83.5877 52.0116 83.5829C51.5113 83.5685 50.6743 83.6333 50.3592 83.6597C50.2197 83.6597 50.1932 83.6909 50.1836 83.9767C50.1836 83.9935 50.2148 85.0045 50.2533 85.54C50.3014 86.1691 50.4024 86.3396 50.9749 86.4188C52.3411 86.6085 53.9454 86.6854 55.3525 86.7934C55.4163 86.7934 55.4775 86.7681 55.5226 86.7231C55.5677 86.6781 55.5931 86.617 55.5931 86.5533C55.7157 85.6552 55.6556 85.7176 54.9075 85.4727C54.4698 85.3526 53.2046 84.906 52.8414 84.7955Z" fill="#F9B34A"/>
<path d="M34.0842 63.6975C33.9952 67.0594 33.8028 70.3852 32.2923 73.4061C30.8492 76.2877 29.3603 79.2533 27.7223 82.0364C27.6333 82.1877 27.1595 81.9836 27.2653 82.1109L28.2755 83.3115C28.3171 83.3513 28.3672 83.381 28.422 83.3986C28.4768 83.4162 28.5348 83.4212 28.5918 83.4131C28.6488 83.405 28.7032 83.3841 28.7509 83.3519C28.7986 83.3198 28.8384 83.2772 28.8672 83.2275C31.8425 79.1068 35.2171 75.063 37.7499 70.6589C40.006 66.7328 41.0764 62.2831 42.1203 57.9175C42.2309 57.4492 41.5045 57.2619 41.3987 57.7326C41.2929 58.2033 41.1726 58.6715 41.0571 59.1422C39.3734 58.2369 36.8624 57.7014 35.0849 58.7292C33.5094 59.6585 34.1251 62.2039 34.0842 63.6975Z" fill="#D95F5F"/>
<path d="M29.1687 83.8206C29.088 83.7114 29.0406 83.5813 29.032 83.4459C29.0235 83.3104 29.0543 83.1754 29.1206 83.057C29.1615 82.9537 29.4357 82.6176 29.4068 82.5191C29.3779 82.4206 29.4068 82.4543 29.289 82.3582C28.9113 82.0316 28.2186 81.5562 27.9564 81.3785C27.841 81.2992 27.8073 81.2992 27.6197 81.5129C27.6197 81.5297 26.9967 82.3318 26.6888 82.7712C26.3305 83.2899 26.2992 83.4916 26.6888 83.9023C27.6317 84.9084 28.8272 85.977 29.8542 86.9471C29.9024 86.9836 29.9625 87.0007 30.0227 86.9949C30.0829 86.9891 30.1386 86.9609 30.1789 86.9159C30.8403 86.2964 30.7562 86.3084 30.328 85.648C30.0851 85.2734 29.3828 84.1352 29.1687 83.8206Z" fill="#F9B34A"/>
<path d="M31.6446 69.5298C32.4535 70.0845 33.7182 70.358 36.2445 70.4096C37.7947 70.565 38.1046 70.3745 39.6607 70.4793C42.884 70.6975 47.6552 69.2546 51.9466 68.1157C54.0524 68.0825 50.8248 57.668 48.9337 52.7273C47.673 49.4335 46.4329 46.6678 44.595 41.8938C44.5959 41.8509 44.6182 41.8204 44.6314 41.7683C44.9745 40.4941 46.0487 38.8126 45.9743 37.4823C45.8171 34.6429 45.9756 32.5743 45.1242 29.8446C44.5296 27.9274 42.2481 26.3805 42.1783 26.3648C39.3617 25.781 37.3967 26.0291 35.9893 27.884C35.8207 28.1104 35.6732 28.3512 35.5487 28.6037C34.758 29.7592 34.5656 31.2364 34.4547 32.6297C34.3208 34.3272 34.2712 36.0408 34.2581 37.7432C34.2502 38.9528 34.0634 40.3944 34.3074 41.5972C32.3961 45.3654 31.3 49.4834 31.0884 53.6907C31.0148 55.0395 30.268 68.5777 31.6446 69.5298Z" fill="#F9B34A"/>
<path d="M44.8943 14.5C44.5679 14.0197 44.1338 13.4307 43.5738 13.1818C43.0139 12.9329 41.5536 12.4634 40.933 12.5227C38.9524 12.7121 38.2921 13.1818 36.9717 14.5C34.9911 17.1364 35.0165 20.1071 35.6513 22.4091C35.7953 22.9292 37.6411 23.5203 38.2921 23.7273C39.0324 23.9635 39.666 21.5938 39.8567 21.1433C40.1122 20.5371 40.1994 19.8925 40.3475 19.2606C40.4651 18.7643 40.933 18.4545 40.933 18.4545C41.5006 17.9471 41.7768 18.1672 42.2534 17.7955C42.6185 17.5079 42.8175 17.3554 42.9136 17.1364C43.374 16.087 43.1544 15.3265 44.6958 15.0847C44.9291 15.0444 45.0484 14.619 44.8943 14.5Z" fill="black"/>
<path d="M35.3025 72.7577C35.9627 72.7577 38.6157 67.4157 39.0294 65.9091C39.4432 64.4025 39.6897 63.2727 39.6897 63.2727L40.3499 61.9546V63.2727C40.3499 64.8546 40.0171 66.2843 39.8507 66.8015C39.3346 67.6092 38.8858 68.4554 38.5086 69.332C38.1076 70.2584 37.5575 71.1178 36.8788 71.8781C36.1679 72.6767 35.2358 73.4196 34.7966 74.3686C34.5795 74.844 34.4391 75.3448 34.2765 75.833C34.1493 76.2118 32.9375 79.7429 32.2185 81.921C32.1015 82.0333 31.971 82.1317 31.8297 82.2139C31.5621 82.3662 31.2299 82.4267 31.042 82.702C30.8542 82.9773 30.7825 83.3561 30.7391 83.6783C30.7149 83.855 30.6664 84.1303 30.9229 84.1479C31.0864 84.1413 31.2482 84.1127 31.4036 84.0629C31.6198 84.0159 31.8314 83.9506 32.0357 83.8677C32.3431 83.7474 32.6133 83.5528 32.8203 83.3024C32.9809 83.0964 33.3142 82.2841 33.3364 82.1387C33.3359 82.1348 33.3359 82.1309 33.3364 82.127C33.4505 81.8126 35.1308 77.1002 35.3025 76.7751C35.5357 76.3309 35.7882 75.8798 36.1517 75.4991C36.8091 74.8108 37.7624 74.515 38.6157 74.1401C39.5519 73.7316 40.4623 73.27 41.3422 72.7577C42.346 72.169 44.4868 70.6099 45.949 69.4062C46.0939 70.1333 46.2868 70.8507 46.5266 71.554C46.847 72.4833 46.997 73.4596 46.9699 74.4389C46.9406 75.4473 46.6882 76.5281 46.9911 77.5151C47.1446 78.0091 47.387 78.4806 47.597 78.9541C47.8161 79.4471 50.4114 85.4151 50.9062 86.3913C51.0445 86.6578 51.2617 86.9498 51.5495 87.0571C51.6292 87.1057 51.7142 87.1457 51.803 87.1763C51.9816 87.2272 52.167 87.2532 52.3533 87.2534C52.5724 87.2651 52.7855 87.2993 53.0026 87.3256C53.1561 87.3432 53.4843 87.392 53.5216 87.1899C53.5671 86.9458 53.4277 86.5631 53.2924 86.3601C53.1198 86.1053 52.841 86.0262 52.5856 85.8788C52.2614 85.6933 52.0432 85.3887 51.8574 85.0812C51.7151 84.8449 51.5808 84.6038 51.4475 84.3626C50.6194 82.5751 49.2228 79.5116 49.137 79.1699C49.0158 78.6905 48.9078 78.1994 48.9421 77.7055C49.0068 76.8122 49.6015 76.077 50.0529 75.3321C50.55 74.5194 50.9886 73.6746 51.3657 72.8036C51.857 71.6812 52.2014 70.5038 52.3906 69.2988C52.5027 69.3369 52.6148 69.3779 52.7249 69.4228C53.7943 69.867 54.5365 70.7778 55.516 71.3587C56.6056 72.004 57.9002 71.9513 59.0837 72.3223C59.9067 72.58 60.6439 73.0252 61.4336 73.3406C61.3629 73.4889 61.2952 73.6383 61.2316 73.7886C60.9448 74.4672 60.9913 75.1554 61.0771 75.8691C61.272 77.4477 59.937 83.4147 59.6563 84.8674C59.531 85.501 59.4351 86.1844 59.5311 86.8267C59.5977 87.2866 59.829 87.7952 60.3389 87.9153C60.6914 87.9993 61.1549 87.8899 61.2831 87.5248C61.478 86.9712 60.8146 86.4899 60.6964 85.9862C60.5217 85.2384 60.957 84.4759 61.266 83.8179C61.5457 83.2262 62.9352 79.451 63.3634 78.1633C63.8885 76.5749 64.4429 74.9836 65.175 73.4772C65.5829 73.3786 65.9848 73.2576 66.3766 73.1238C67.4501 72.7587 68.4872 72.3311 69.5707 72.0148L70.0413 72.7763C70.4573 73.4479 70.8289 74.2084 71.3722 74.7942C71.8822 75.3438 72.6103 75.5362 73.302 75.7832C74.2644 76.1268 76.7081 77.7338 76.804 78.4455C76.9706 79.6824 75.9124 81.0443 75.5367 81.4719C75.1994 81.8556 74.7036 82.0918 74.4007 82.4999C74.1947 82.7742 74.1189 83.197 74.3512 83.482C74.6077 83.8013 75.0823 83.6646 75.4155 83.5484C75.8441 83.3942 76.2395 83.1649 76.5819 82.8719C77.3716 82.2119 77.9189 81.3147 78.3814 80.4234C78.6257 79.9519 78.8641 79.4579 78.9176 78.9268C78.9555 78.4177 78.8397 77.909 78.5844 77.4624C78.1077 76.572 73.9664 72.8632 72.7092 70.319C72.791 70.2038 72.8688 70.0857 72.9425 69.9656C73.5999 68.8907 74.0644 67.6791 74.5178 66.5135C74.7407 65.9336 74.9531 65.3478 75.155 64.7562C75.2742 64.5687 75.3994 64.3852 75.5337 64.2075C76.0295 63.5486 76.6354 63.0653 77.3241 62.6065C77.6198 62.421 77.8954 62.2075 78.1471 61.969C78.4057 61.6974 78.607 61.3797 78.7399 61.0337C78.8505 60.7417 78.98 60.4567 79.1276 60.1804C79.5726 60.0875 80.0111 59.9675 80.4404 59.8212C81.0215 59.6313 81.6343 59.5485 82.247 59.5771C83.1417 59.6269 84.001 59.7392 84.8321 59.334C84.8805 59.3106 84.9371 59.2803 84.9765 59.2588C85.0153 59.2377 85.0531 59.2155 85.0909 59.1934L85.0926 59.1924C85.6488 58.8583 86.0869 58.3688 86.3488 57.7886L86.3493 57.7875C86.3633 57.7557 86.3773 57.7238 86.3902 57.6909C86.5114 57.3951 86.6023 57.0554 86.5407 56.7449C86.4751 56.4159 86.2166 56.209 85.9086 56.086C85.8247 56.0528 85.7399 56.0215 85.6531 55.9932C84.9907 55.7735 84.2666 55.6837 83.595 55.5051C82.8013 55.2942 82.0389 55.2512 81.6128 54.5522C81.322 54.0768 80.7464 53.0956 79.8961 52.832C78.7732 52.4845 76.3779 52.5226 75.2004 53.1571C74.437 53.5681 73.2646 54.5093 72.688 55.1517C72.3841 55.4894 72.1266 55.8653 71.8145 56.1972C71.4501 56.5812 70.9927 56.8717 70.4836 57.0427C70.0069 57.2125 69.5101 57.3268 69.0365 57.5055C68.9214 57.5494 68.8073 57.5962 68.6952 57.647L68.5155 57.6695C66.9058 57.8862 65.3113 58.2787 63.6743 58.304C62.0071 58.3294 48.9552 56.9324 47.3981 57.03L47.0224 57.0544C45.2643 56.7605 44.3112 56.6818 42.3305 56.6818C40.3499 57.03 39.4153 58.2612 38.6157 59.8885C37.9655 61.2117 37.0654 65.1567 36.8788 65.9091C36.3886 67.8864 34.6423 72.7577 35.3025 72.7577Z" fill="#1C1C1C"/>
<path d="M61.4741 57.6246C60.849 57.6246 53.7961 56.4626 53.7961 57.6246C53.7961 57.6246 53.478 59.3182 53.478 59.9773C53.478 60.6364 53.7961 60.5076 54.1382 60.6364C54.4803 60.7651 59.2997 61.2955 59.2997 61.2955C59.0846 63.9319 59.0846 66.5028 59.0846 68.8321C59.0676 69.6378 59.1397 70.4429 59.2997 71.2338C59.4173 71.8014 59.624 72.3482 59.9126 72.8554C59.9593 72.9508 60.0299 73.0334 60.1181 73.0957C60.2063 73.1579 60.3093 73.1978 60.4175 73.2117C60.7458 73.2504 61.0654 73.3404 61.3637 73.4782C61.3735 73.4829 61.3844 73.4844 61.3951 73.4827C61.4058 73.481 61.4157 73.476 61.4233 73.4685C61.4309 73.4611 61.4359 73.4515 61.4375 73.4411C61.4392 73.4308 61.4373 73.4202 61.4324 73.4109C60.7916 71.991 60.5115 70.4435 60.6155 68.8976L61.4741 62.6137C61.4741 62.6137 65.5018 65.7556 68.5237 66.8406C69.2917 67.1163 69.7176 67.3158 70.5228 67.4488C71.1302 67.5491 72.0961 67.5503 72.0961 67.5503C72.1507 67.5516 72.2053 67.5464 72.2586 67.5347C72.6868 67.4468 73.115 67.3482 73.5361 67.2311C73.9165 67.1395 74.2855 67.0086 74.6368 66.8406C74.962 66.6678 75.074 66.4022 75.1932 66.0771C75.3366 65.6866 75.5295 65.26 75.586 64.848C75.6173 64.6381 75.5588 64.4848 75.3144 64.5073C75.2508 64.5131 74.9525 64.8117 74.0174 65.2501L72.697 65.9092C72.1132 66.0771 70.7082 65.7953 70.0563 65.2501L68.7738 64.3696L65.4505 61.8987C65.4888 61.7727 65.5262 61.6458 65.5666 61.5199C65.7734 60.8233 66.0504 60.1481 66.3937 59.5039C66.5722 59.1797 66.7829 58.873 67.0228 58.5881C67.2299 58.3732 67.4571 58.1771 67.7013 58.0024L67.9821 57.9184C68.0813 57.9022 68.1778 57.8729 68.2689 57.8315C68.3789 57.7407 68.2689 57.6119 68.1679 57.564C68.0413 57.5195 67.9063 57.5018 67.7721 57.5123L67.1197 57.4957C66.2169 57.4723 64.8274 57.648 63.9246 57.6246C62.1191 57.5777 62.3667 57.6246 61.4741 57.6246Z" fill="#F9B34A"/>
<path d="M53.7753 42.6606L50.8176 44.8812L51.9169 46.3673L54.8746 44.1467L53.7753 42.6606Z" fill="#C4C4C4"/>
<path d="M68.0588 57.7977L54.1039 43.2219L53.2839 43.8933L66.7385 57.7977L68.0588 57.7977Z" fill="black"/>
<path d="M65.5832 59.2681L50.8168 44.8811L49.9968 45.5525L64.7583 59.7749L65.5832 59.2681Z" fill="black"/>
<path d="M53.906 43.8284C53.7906 43.7243 53.6753 43.611 53.5475 43.5127C53.4064 43.4041 53.25 43.3137 53.0613 43.2737C52.8116 43.2263 52.5669 43.2471 52.3213 43.2168C52.186 43.1189 52.0449 43.0281 51.9112 42.9202C48.3795 40.2892 47.3725 38.8948 44.9784 35.2478C43.6602 33.238 44.183 33.2264 42.4454 30.9325C42.0912 30.6523 41.7315 30.4863 41.3716 30.4546C41.3254 30.4505 41.2773 30.4546 41.2301 30.4667C41.1829 30.4788 41.1374 30.4987 41.0964 30.5251C41.0554 30.5515 41.0197 30.5839 40.9913 30.6206C40.9628 30.6573 40.9422 30.6974 40.9306 30.7387C39.9338 34.3279 41.1405 36.4129 41.8675 37.429C42.9345 38.9201 47.7554 42.7174 49.2832 43.4351C49.7626 43.7135 50.2447 43.9915 50.7296 44.2692C50.7682 44.2986 50.8044 44.3304 50.8379 44.3643C51.1057 44.6575 51.1061 45.0702 51.3542 45.3717C51.5123 45.5538 51.6917 45.7201 51.8903 45.8687C52.1304 46.2134 52.4185 46.4933 52.7665 46.5486C53.3134 46.6328 54.4732 45.8936 54.7722 45.4534C55.2553 44.755 54.3337 44.2162 53.906 43.8284Z" fill="#D95F5F"/>
</svg>
